# Blender v3.2.2 OBJ File: 'IFB399-Prop-LightingFixture.blend'
# www.blender.org
mtllib IFB399-Prop-LightingFixture.mtl
o LightingFixtureBody_Cube
v 1.000000 0.000000 0.000000
v -0.731743 0.000000 0.000000
v 0.960565 0.458639 -0.458576
v 0.960565 -0.462741 -0.458576
v -0.692308 0.458639 -0.458576
v -0.692308 -0.462741 -0.458576
v -0.731743 -0.423305 0.000000
v -0.692308 -0.462741 0.000000
v -0.039435 -0.462741 -0.458576
v 0.039435 -0.462741 -0.458576
v 1.000000 0.419204 0.000000
v 0.960565 0.458639 0.000000
v -0.692308 0.458639 0.000000
v -0.731743 0.419204 0.000000
v 0.039435 0.458639 -0.458576
v -0.039435 0.458639 -0.458576
v 0.960565 -0.462741 0.000000
v 1.000000 -0.423305 0.000000
v -0.039435 -0.462741 0.000000
v 0.039435 -0.462741 0.000000
v 0.039435 0.458639 0.000000
v -0.039435 0.458639 0.000000
v 0.974411 -0.025589 -0.498011
v 0.974411 0.025589 -0.498011
v 1.000000 0.000000 -0.472422
v -0.706154 -0.025589 -0.498011
v -0.731743 0.000000 -0.472422
v -0.706154 0.025589 -0.498011
v 0.025589 -0.025589 -0.498011
v -0.025589 -0.025589 -0.498011
v -0.025589 0.025589 -0.498011
v 0.025589 0.025589 -0.498011
v 0.974411 0.393615 -0.498011
v 0.990953 0.428251 -0.476170
v 0.974411 -0.397717 -0.498011
v 0.990953 -0.432352 -0.476170
v -0.706154 0.393615 -0.498011
v -0.722696 0.428251 -0.476170
v -0.706154 -0.397717 -0.498011
v -0.722696 -0.432352 -0.476170
v -0.025589 -0.397717 -0.498011
v 0.025589 -0.397717 -0.498011
v 0.000000 -0.441399 -0.479917
v 0.025589 0.393615 -0.498011
v -0.025589 0.393615 -0.498011
v 0.000000 0.437298 -0.479917
v 0.960565 0.458639 0.458576
v 0.960565 -0.462741 0.458576
v -0.692308 0.458639 0.458576
v -0.692308 -0.462741 0.458576
v -0.039435 -0.462741 0.458576
v 0.039435 -0.462741 0.458576
v 0.039435 0.458639 0.458576
v -0.039435 0.458639 0.458576
v 0.974411 -0.025589 0.498011
v 0.974411 0.025589 0.498011
v 1.000000 0.000000 0.472422
v -0.706154 -0.025589 0.498011
v -0.731743 0.000000 0.472422
v -0.706154 0.025589 0.498011
v 0.025589 -0.025589 0.498011
v -0.025589 -0.025589 0.498011
v -0.025589 0.025589 0.498011
v 0.025589 0.025589 0.498011
v 0.974411 0.393615 0.498011
v 0.990953 0.428251 0.476170
v 0.974411 -0.397717 0.498011
v 0.990953 -0.432352 0.476170
v -0.706154 0.393615 0.498011
v -0.722696 0.428251 0.476170
v -0.706154 -0.397717 0.498011
v -0.722696 -0.432352 0.476170
v -0.025589 -0.397717 0.498011
v 0.025589 -0.397717 0.498011
v 0.000000 -0.441399 0.479917
v 0.025589 0.393615 0.498011
v -0.025589 0.393615 0.498011
v 0.000000 0.437298 0.479917
vt 0.460399 0.987962
vt 0.460399 0.895197
vt 0.536396 0.895198
vt 0.538345 0.989945
vt 0.191062 0.685519
vt 0.109513 0.685519
vt 0.109516 0.544320
vt 0.191065 0.544320
vt 0.465043 0.160168
vt 0.464502 0.017096
vt 0.564995 0.016716
vt 0.565536 0.159788
vt 0.465871 0.379309
vt 0.566365 0.378929
vt 0.566397 0.387571
vt 0.462041 0.385983
vt 0.464502 0.774195
vt 0.465043 0.631123
vt 0.565536 0.631503
vt 0.564995 0.774575
vt 0.465108 0.613840
vt 0.465871 0.411981
vt 0.566365 0.412362
vt 0.565601 0.614219
vt 0.103908 0.536396
vt 0.010060 0.538345
vt 0.012041 0.460399
vt 0.103907 0.460399
vt 0.460399 0.803331
vt 0.538345 0.801350
vt 0.191060 0.794412
vt 0.109511 0.794412
vt 0.109513 0.693134
vt 0.191062 0.693134
vt 0.198655 0.538345
vt 0.196671 0.460399
vt 0.098295 0.794412
vt 0.017645 0.794412
vt 0.017647 0.693134
vt 0.098297 0.693134
vt 0.465108 0.177451
vt 0.460399 0.168827
vt 0.460399 0.622464
vt 0.564962 0.783217
vt 0.460621 0.780840
vt 0.462041 0.405308
vt 0.460621 0.010451
vt 0.566397 0.403720
vt 0.564962 0.008074
vt 0.565601 0.177072
vt 0.098300 0.544320
vt 0.544320 0.900806
vt 0.544320 0.889591
vt 0.098298 0.685519
vt 0.200635 0.686416
vt 0.017647 0.685519
vt 0.008074 0.686416
vt 0.544320 0.982355
vt 0.645598 0.982353
vt 0.646495 0.991926
vt 0.017650 0.544320
vt 0.645598 0.808938
vt 0.544320 0.808940
vt 0.646495 0.799365
vt 0.405379 0.460399
vt 0.407363 0.538345
vt 0.312616 0.536396
vt 0.312615 0.460399
vt 0.399771 0.653214
vt 0.399768 0.794412
vt 0.318219 0.794412
vt 0.318222 0.653214
vt 0.666029 0.159408
vt 0.665488 0.016336
vt 0.666858 0.378549
vt 0.670738 0.385194
vt 0.665488 0.774955
vt 0.666029 0.631883
vt 0.666094 0.614600
vt 0.666858 0.412742
vt 0.783613 0.084071
vt 0.783615 0.008074
vt 0.875481 0.008074
vt 0.877462 0.086020
vt 0.218768 0.538345
vt 0.220749 0.460399
vt 0.399773 0.544320
vt 0.399771 0.645598
vt 0.318222 0.645598
vt 0.318224 0.544320
vt 0.688866 0.086020
vt 0.690850 0.008074
vt 0.307009 0.544320
vt 0.307007 0.645598
vt 0.226356 0.645598
vt 0.226358 0.544320
vt 0.666094 0.176691
vt 0.670738 0.168032
vt 0.670738 0.623259
vt 0.669318 0.781629
vt 0.670738 0.406097
vt 0.669318 0.009662
vt 0.778006 0.091995
vt 0.789221 0.091995
vt 0.307006 0.653214
vt 0.409344 0.646495
vt 0.226356 0.653214
vt 0.216783 0.646495
vt 0.307004 0.794412
vt 0.869872 0.091995
vt 0.879447 0.234091
vt 0.869874 0.233194
vt 0.696459 0.233194
vt 0.686887 0.234091
vt 0.696457 0.091995
vt 0.226353 0.794412
vn -0.9999 -0.0105 -0.0094
vn 0.0000 0.0000 -1.0000
vn 0.0000 1.0000 0.0000
vn 0.7071 0.7071 0.0000
vn 0.0000 -1.0000 0.0000
vn 0.9999 0.0106 -0.0094
vn -0.9999 0.0106 -0.0094
vn 0.9999 -0.0105 -0.0094
vn 0.0000 0.7071 -0.7071
vn 0.0000 -0.7071 -0.7071
vn -0.7071 -0.7071 0.0000
vn 0.0044 -0.6009 -0.7993
vn -0.0061 0.6007 -0.7995
vn -0.0061 -0.6007 -0.7995
vn 0.7071 -0.7071 0.0000
vn 0.0044 0.6009 -0.7993
vn -0.7071 0.7071 0.0000
vn 0.7071 0.0000 -0.7071
vn -0.7071 0.0000 -0.7071
vn 0.0000 -0.3827 -0.9239
vn 0.0000 0.3827 -0.9239
vn -0.0053 -0.4547 -0.8906
vn 0.0038 0.4546 -0.8907
vn 0.0038 -0.4546 -0.8907
vn -0.0053 0.4547 -0.8906
vn 0.7471 0.0054 -0.6647
vn 0.7471 -0.0053 -0.6647
vn -0.7471 0.0054 -0.6647
vn -0.7471 -0.0053 -0.6647
vn -0.9999 -0.0105 0.0094
vn 0.0000 0.0000 1.0000
vn 0.9999 0.0106 0.0094
vn -0.9999 0.0106 0.0094
vn 0.9999 -0.0105 0.0094
vn 0.0000 0.7071 0.7071
vn 0.0000 -0.7071 0.7071
vn 0.0044 -0.6009 0.7993
vn -0.0061 0.6007 0.7995
vn -0.0061 -0.6007 0.7995
vn 0.0044 0.6009 0.7993
vn 0.7071 0.0000 0.7071
vn -0.7071 0.0000 0.7071
vn 0.0000 -0.3827 0.9239
vn 0.0000 0.3827 0.9239
vn -0.0053 -0.4547 0.8906
vn 0.0038 0.4546 0.8907
vn 0.0038 -0.4546 0.8907
vn -0.0053 0.4547 0.8906
vn 0.7471 0.0054 0.6647
vn 0.7471 -0.0053 0.6647
vn -0.7471 0.0054 0.6647
vn -0.7471 -0.0053 0.6647
usemtl Material.001
s off
f 7/1/1 2/2/1 27/3/1 40/4/1
f 42/5/2 29/6/2 23/7/2 35/8/2
f 16/9/3 5/10/3 13/11/3 22/12/3
f 3/13/4 12/14/4 11/15/4 34/16/4
f 6/17/5 9/18/5 19/19/5 8/20/5
f 10/21/5 4/22/5 17/23/5 20/24/5
f 25/25/6 34/26/6 11/27/6 1/28/6
f 2/2/7 14/29/7 38/30/7 27/3/7
f 39/31/2 26/32/2 30/33/2 41/34/2
f 36/35/8 25/25/8 1/28/8 18/36/8
f 28/37/2 37/38/2 45/39/2 31/40/2
f 15/41/9 46/42/9 16/9/9
f 9/18/10 43/43/10 10/21/10
f 6/17/11 8/20/11 7/44/11 40/45/11
f 4/22/12 10/21/12 43/43/12 36/46/12
f 5/10/13 16/9/13 46/42/13 38/47/13
f 9/18/14 6/17/14 40/45/14 43/43/14
f 17/23/15 4/22/15 36/46/15 18/48/15
f 15/41/16 3/13/16 34/16/16 46/42/16
f 13/11/17 5/10/17 38/47/17 14/49/17
f 10/21/5 20/24/5 19/19/5 9/18/5
f 16/9/3 22/12/3 21/50/3 15/41/3
f 3/13/3 15/41/3 21/50/3 12/14/3
f 23/7/18 24/51/18 25/25/18
f 26/52/19 27/3/19 28/53/19
f 29/6/2 30/33/2 31/40/2 32/54/2
f 41/34/20 42/5/20 43/55/20
f 44/56/21 45/39/21 46/57/21
f 32/54/2 24/51/2 23/7/2 29/6/2
f 28/37/2 31/40/2 30/33/2 26/32/2
f 39/58/22 41/59/22 43/60/22 40/4/22
f 33/61/23 44/56/23 46/57/23 34/26/23
f 42/5/24 35/8/24 36/35/24 43/55/24
f 45/62/25 37/63/25 38/30/25 46/64/25
f 31/40/2 45/39/2 44/56/2 32/54/2
f 34/26/26 25/25/26 24/51/26 33/61/26
f 35/8/27 23/7/27 25/25/27 36/35/27
f 41/34/2 30/33/2 29/6/2 42/5/2
f 37/63/28 28/53/28 27/3/28 38/30/28
f 40/4/29 27/3/29 26/52/29 39/58/29
f 32/54/2 44/56/2 33/61/2 24/51/2
f 7/65/30 72/66/30 59/67/30 2/68/30
f 74/69/31 67/70/31 55/71/31 61/72/31
f 54/73/3 22/12/3 13/11/3 49/74/3
f 47/75/4 66/76/4 11/15/4 12/14/4
f 50/77/5 8/20/5 19/19/5 51/78/5
f 52/79/5 20/24/5 17/23/5 48/80/5
f 57/81/32 1/82/32 11/83/32 66/84/32
f 2/68/33 59/67/33 70/85/33 14/86/33
f 71/87/31 73/88/31 62/89/31 58/90/31
f 68/91/34 18/92/34 1/82/34 57/81/34
f 60/93/31 63/94/31 77/95/31 69/96/31
f 53/97/35 54/73/35 78/98/35
f 51/78/36 52/79/36 75/99/36
f 50/77/11 72/100/11 7/44/11 8/20/11
f 48/80/37 68/101/37 75/99/37 52/79/37
f 49/74/38 70/102/38 78/98/38 54/73/38
f 51/78/39 75/99/39 72/100/39 50/77/39
f 17/23/15 18/48/15 68/101/15 48/80/15
f 53/97/40 78/98/40 66/76/40 47/75/40
f 13/11/17 14/49/17 70/102/17 49/74/17
f 52/79/5 51/78/5 19/19/5 20/24/5
f 54/73/3 53/97/3 21/50/3 22/12/3
f 47/75/3 12/14/3 21/50/3 53/97/3
f 55/103/41 57/81/41 56/104/41
f 58/90/42 60/93/42 59/67/42
f 61/72/31 64/105/31 63/94/31 62/89/31
f 73/88/43 75/106/43 74/69/43
f 76/107/44 78/108/44 77/95/44
f 64/105/31 61/72/31 55/71/31 56/109/31
f 60/93/31 58/90/31 62/89/31 63/94/31
f 71/87/45 72/66/45 75/106/45 73/88/45
f 65/110/46 66/84/46 78/111/46 76/112/46
f 74/113/47 75/114/47 68/91/47 67/115/47
f 77/95/48 78/108/48 70/85/48 69/96/48
f 63/94/31 64/105/31 76/107/31 77/95/31
f 66/84/49 65/110/49 56/104/49 57/81/49
f 67/115/50 68/91/50 57/81/50 55/103/50
f 73/88/31 74/69/31 61/72/31 62/89/31
f 69/96/51 70/85/51 59/67/51 60/93/51
f 72/66/52 71/87/52 58/90/52 59/67/52
f 64/105/31 56/109/31 65/116/31 76/107/31
o LightingFixtureLens_Cylinder
v 1.190310 -0.000000 -0.286929
v 1.155756 -0.000000 -0.321650
v 1.190310 -0.055977 -0.281416
v 1.155756 -0.062751 -0.315470
v 1.190310 -0.109803 -0.265088
v 1.155756 -0.123090 -0.297166
v 1.190310 -0.159409 -0.238573
v 1.155756 -0.178699 -0.267442
v 1.190310 -0.202889 -0.202889
v 1.155756 -0.227441 -0.227441
v 1.190310 -0.238573 -0.159409
v 1.155756 -0.267442 -0.178699
v 1.190310 -0.265088 -0.109803
v 1.155756 -0.297166 -0.123090
v 1.190310 -0.281416 -0.055977
v 1.155756 -0.315470 -0.062751
v 1.190310 -0.286929 0.000000
v 1.155756 -0.321650 0.000000
v 1.190310 -0.281416 0.055977
v 1.155756 -0.315470 0.062751
v 1.190310 -0.265088 0.109803
v 1.155756 -0.297166 0.123090
v 1.190310 -0.238573 0.159409
v 1.155756 -0.267442 0.178699
v 1.190310 -0.202889 0.202889
v 1.155756 -0.227441 0.227441
v 1.190310 -0.159409 0.238573
v 1.155756 -0.178699 0.267442
v 1.190310 -0.109803 0.265088
v 1.155756 -0.123090 0.297166
v 1.190310 -0.055977 0.281416
v 1.155756 -0.062751 0.315470
v 1.190310 0.000000 0.286929
v 1.155756 0.000000 0.321650
v 1.190310 0.055977 0.281416
v 1.155756 0.062751 0.315470
v 1.190310 0.109803 0.265088
v 1.155756 0.123090 0.297166
v 1.190310 0.159409 0.238573
v 1.155756 0.178699 0.267442
v 1.190310 0.202889 0.202889
v 1.155756 0.227441 0.227441
v 1.190310 0.238573 0.159409
v 1.155756 0.267442 0.178699
v 1.190310 0.265088 0.109803
v 1.155756 0.297166 0.123090
v 1.190310 0.281416 0.055977
v 1.155756 0.315470 0.062751
v 1.190310 0.286929 -0.000000
v 1.155756 0.321650 -0.000000
v 1.190310 0.281416 -0.055977
v 1.155756 0.315470 -0.062751
v 1.190310 0.265088 -0.109803
v 1.155756 0.297166 -0.123090
v 1.190310 0.238573 -0.159409
v 1.155756 0.267442 -0.178699
v 1.190310 0.202889 -0.202889
v 1.155756 0.227441 -0.227441
v 1.190310 0.159409 -0.238573
v 1.155756 0.178699 -0.267442
v 1.190310 0.109803 -0.265088
v 1.155756 0.123090 -0.297166
v 1.190310 0.055977 -0.281416
v 1.155756 0.062751 -0.315470
v 1.166183 -0.000000 -0.260506
v 1.166183 -0.050822 -0.255501
v 1.166183 -0.099691 -0.240676
v 1.166183 -0.144730 -0.216603
v 1.166183 -0.184206 -0.184206
v 1.166183 -0.216603 -0.144730
v 1.166183 -0.240676 -0.099691
v 1.166183 -0.255501 -0.050822
v 1.166183 -0.260506 0.000000
v 1.166183 -0.255501 0.050822
v 1.166183 -0.240676 0.099691
v 1.166183 -0.216603 0.144730
v 1.166183 -0.184206 0.184206
v 1.166183 -0.144730 0.216603
v 1.166183 -0.099692 0.240676
v 1.166183 -0.050822 0.255501
v 1.166183 0.000000 0.260506
v 1.166183 0.050822 0.255501
v 1.166183 0.099691 0.240676
v 1.166183 0.144730 0.216603
v 1.166183 0.184206 0.184206
v 1.166183 0.216603 0.144730
v 1.166183 0.240676 0.099691
v 1.166183 0.255501 0.050822
v 1.166183 0.260506 -0.000000
v 1.166183 0.255501 -0.050822
v 1.166183 0.240676 -0.099692
v 1.166183 0.216603 -0.144730
v 1.166183 0.184206 -0.184206
v 1.166183 0.144730 -0.216603
v 1.166183 0.099691 -0.240676
v 1.166183 0.050822 -0.255501
v 0.988689 -0.000000 -0.321650
v 0.988689 -0.062751 -0.315470
v 0.988689 0.062751 -0.315470
v 0.988689 -0.123090 -0.297166
v 0.988689 -0.178699 -0.267442
v 0.988689 -0.227441 -0.227441
v 0.988689 -0.267442 -0.178699
v 0.988689 -0.297166 -0.123090
v 0.988689 -0.315470 -0.062751
v 0.988689 -0.321650 0.000000
v 0.988689 -0.315470 0.062751
v 0.988689 -0.297166 0.123090
v 0.988689 -0.267442 0.178699
v 0.988689 -0.227441 0.227441
v 0.988689 -0.178699 0.267442
v 0.988689 -0.123090 0.297166
v 0.988689 -0.062751 0.315470
v 0.988689 0.000000 0.321650
v 0.988689 0.062751 0.315470
v 0.988689 0.123090 0.297166
v 0.988689 0.178699 0.267442
v 0.988689 0.227441 0.227441
v 0.988689 0.267442 0.178699
v 0.988689 0.297166 0.123090
v 0.988689 0.315470 0.062751
v 0.988689 0.321650 -0.000000
v 0.988689 0.315470 -0.062751
v 0.988689 0.297166 -0.123090
v 0.988689 0.267442 -0.178699
v 0.988689 0.227441 -0.227441
v 0.988689 0.178699 -0.267442
v 0.988689 0.123090 -0.297166
vt 0.954226 0.441119
vt 0.840401 0.441119
vt 0.840401 0.398160
vt 0.954226 0.398160
vt 0.954226 0.316336
vt 0.840401 0.316336
vt 0.840401 0.280617
vt 0.954226 0.280617
vt 0.840401 0.250240
vt 0.954226 0.250240
vt 0.816859 0.574811
vt 0.930684 0.574811
vt 0.930684 0.610531
vt 0.816859 0.610531
vt 0.930684 0.650220
vt 0.816859 0.650220
vt 0.930684 0.692354
vt 0.816859 0.692354
vt 0.930684 0.735314
vt 0.816859 0.735314
vt 0.930684 0.777448
vt 0.816859 0.777448
vt 0.930684 0.817138
vt 0.816859 0.817138
vt 0.930684 0.852857
vt 0.816859 0.852857
vt 0.686887 0.250240
vt 0.800711 0.250240
vt 0.800711 0.285959
vt 0.686887 0.285959
vt 0.800711 0.325649
vt 0.686887 0.325649
vt 0.800711 0.367783
vt 0.686887 0.367783
vt 0.800711 0.410742
vt 0.686887 0.410742
vt 0.800711 0.452877
vt 0.686887 0.452877
vt 0.800711 0.492566
vt 0.686887 0.492566
vt 0.800711 0.528286
vt 0.686887 0.528286
vt 0.800711 0.558663
vt 0.686887 0.558663
vt 0.800711 0.913611
vt 0.686887 0.913611
vt 0.686887 0.883234
vt 0.800711 0.883234
vt 0.686887 0.847515
vt 0.800711 0.847515
vt 0.686887 0.807825
vt 0.800711 0.807825
vt 0.686887 0.765691
vt 0.800711 0.765691
vt 0.686887 0.722731
vt 0.800711 0.722731
vt 0.686887 0.680597
vt 0.800711 0.680597
vt 0.686887 0.640908
vt 0.800711 0.640908
vt 0.686887 0.605188
vt 0.800711 0.605188
vt 0.686887 0.574811
vt 0.800711 0.574811
vt 0.954226 0.558663
vt 0.840401 0.558663
vt 0.840401 0.522943
vt 0.954226 0.522943
vt 0.840401 0.483254
vt 0.954226 0.483254
vt 0.840401 0.356026
vt 0.954226 0.356026
vt 0.032895 0.329466
vt 0.016455 0.289776
vt 0.039093 0.282909
vt 0.053758 0.318314
vt 0.056762 0.365185
vt 0.075049 0.350178
vt 0.087139 0.395562
vt 0.102146 0.377276
vt 0.122859 0.419429
vt 0.134010 0.398567
vt 0.162548 0.435869
vt 0.169415 0.413232
vt 0.204682 0.444250
vt 0.207001 0.420708
vt 0.247642 0.444250
vt 0.245323 0.420708
vt 0.954226 0.694673
vt 0.954226 0.732995
vt 0.329466 0.419429
vt 0.289776 0.435869
vt 0.282909 0.413232
vt 0.318314 0.398567
vt 0.365185 0.395562
vt 0.350178 0.377276
vt 0.395562 0.365185
vt 0.377276 0.350178
vt 0.419429 0.329466
vt 0.398567 0.318314
vt 0.435869 0.289776
vt 0.413232 0.282909
vt 0.444250 0.247642
vt 0.420708 0.245323
vt 0.824253 0.370101
vt 0.824253 0.408424
vt 0.435869 0.162548
vt 0.444250 0.204682
vt 0.420708 0.207001
vt 0.413232 0.169415
vt 0.419429 0.122859
vt 0.398567 0.134010
vt 0.395562 0.087139
vt 0.377276 0.102146
vt 0.365185 0.056762
vt 0.350178 0.075049
vt 0.329466 0.032895
vt 0.318314 0.053758
vt 0.289776 0.016455
vt 0.282909 0.039093
vt 0.247642 0.008074
vt 0.245323 0.031616
vt 0.204682 0.008074
vt 0.207001 0.031616
vt 0.162548 0.016455
vt 0.169415 0.039093
vt 0.122859 0.032895
vt 0.134010 0.053758
vt 0.087139 0.056762
vt 0.102146 0.075049
vt 0.056762 0.087139
vt 0.075049 0.102146
vt 0.032895 0.122859
vt 0.053758 0.134010
vt 0.016455 0.162548
vt 0.039093 0.169415
vt 0.008074 0.204682
vt 0.031616 0.207001
vt 0.008074 0.247642
vt 0.031616 0.245323
vt 0.382690 0.309828
vt 0.396005 0.277683
vt 0.069634 0.309828
vt 0.056319 0.277684
vt 0.049531 0.243559
vt 0.049531 0.208766
vt 0.056319 0.174641
vt 0.069634 0.142496
vt 0.088964 0.113567
vt 0.113567 0.088964
vt 0.142496 0.069634
vt 0.174641 0.056319
vt 0.208766 0.049532
vt 0.243559 0.049531
vt 0.277683 0.056319
vt 0.309828 0.069634
vt 0.338758 0.088964
vt 0.363360 0.113567
vt 0.382690 0.142496
vt 0.396005 0.174641
vt 0.402793 0.208766
vt 0.402793 0.243559
vt 0.363360 0.338758
vt 0.338758 0.363360
vt 0.309828 0.382690
vt 0.277684 0.396005
vt 0.243559 0.402793
vt 0.208766 0.402793
vt 0.174641 0.396005
vt 0.142496 0.382690
vt 0.113567 0.363360
vt 0.088964 0.338758
vn 0.0000 0.0980 -0.9952
vn 0.0000 -0.4714 -0.8819
vn -0.0000 -0.6344 -0.7730
vn -0.0000 -0.7730 -0.6344
vn 0.0000 -0.8819 -0.4714
vn 0.0000 -0.9569 -0.2903
vn 0.0000 -0.9952 -0.0980
vn 0.0000 -0.9952 0.0980
vn 0.0000 -0.9569 0.2903
vn 0.0000 -0.8819 0.4714
vn -0.0000 -0.7730 0.6344
vn -0.0000 -0.6344 0.7730
vn -0.0000 -0.4714 0.8819
vn -0.0000 -0.2903 0.9569
vn -0.0000 -0.0980 0.9952
vn -0.0000 0.0980 0.9952
vn -0.0000 0.2903 0.9569
vn -0.0000 0.4714 0.8819
vn 0.0000 0.6344 0.7730
vn 0.0000 0.7730 0.6344
vn 0.0000 0.8819 0.4714
vn 0.0000 0.9569 0.2903
vn 0.0000 0.9952 0.0980
vn 0.0000 0.9952 -0.0980
vn 0.0000 0.9569 -0.2903
vn 0.0000 0.8819 -0.4714
vn 0.0000 0.7730 -0.6344
vn 0.0000 0.6344 -0.7730
vn 0.0000 0.4714 -0.8819
vn 0.0000 0.2903 -0.9569
vn 0.0000 -0.0980 -0.9952
vn 0.0000 -0.2903 -0.9569
vn 0.7071 -0.0693 -0.7037
vn 0.7071 -0.2053 -0.6767
vn 0.7071 -0.3333 -0.6236
vn 0.7071 -0.4486 -0.5466
vn 0.7071 -0.5466 -0.4486
vn 0.7071 -0.6236 -0.3333
vn 0.7071 -0.6767 -0.2053
vn 0.7071 -0.7037 -0.0693
vn 0.7071 -0.7037 0.0693
vn 0.7071 -0.6767 0.2053
vn 0.7071 -0.6236 0.3333
vn 0.7071 -0.5466 0.4486
vn 0.7071 -0.4486 0.5466
vn 0.7071 -0.3333 0.6236
vn 0.7071 -0.2053 0.6767
vn 0.7071 -0.0693 0.7037
vn 0.7071 0.0693 0.7037
vn 0.7071 0.2053 0.6767
vn 0.7071 0.3333 0.6236
vn 0.7071 0.4486 0.5466
vn 0.7071 0.5466 0.4486
vn 0.7071 0.6236 0.3333
vn 0.7071 0.6767 0.2053
vn 0.7071 0.7037 0.0693
vn 0.7071 0.7037 -0.0693
vn 0.7071 0.6767 -0.2053
vn 0.7071 0.6236 -0.3333
vn 0.7071 0.5466 -0.4486
vn 0.7071 0.4486 -0.5466
vn 0.7071 0.3333 -0.6236
vn 0.7071 0.2053 -0.6767
vn 0.7071 0.0693 -0.7037
vn 0.7368 0.4289 -0.5226
vn 1.0000 -0.0000 0.0000
vn 0.7368 -0.5963 -0.3187
vn 0.7368 -0.1963 0.6470
vn 0.7368 0.6728 -0.0663
vn 0.7368 -0.1963 -0.6470
vn 0.7368 -0.5963 0.3187
vn 0.7368 -0.0663 0.6728
vn 0.7368 0.5226 0.4289
vn 0.7368 0.3187 -0.5963
vn 0.7368 -0.6470 -0.1963
vn 0.7368 0.0663 0.6728
vn 0.7368 0.6470 -0.1963
vn 0.7368 -0.3187 -0.5963
vn 0.7368 -0.5226 0.4289
vn 0.7368 0.5963 0.3187
vn 0.7368 0.1963 -0.6470
vn 0.7368 -0.6728 -0.0663
vn 0.7368 0.1963 0.6470
vn 0.7368 0.5963 -0.3187
vn 0.7368 -0.4289 -0.5226
vn 0.7368 -0.4289 0.5226
vn 0.7368 0.6470 0.1963
vn 0.7368 0.0663 -0.6728
vn 0.7368 -0.6728 0.0663
vn 0.7368 0.3187 0.5963
vn 0.7368 0.5226 -0.4289
vn 0.7368 -0.5226 -0.4289
vn 0.7368 -0.3187 0.5963
vn 0.7368 0.6728 0.0663
vn 0.7368 -0.0663 -0.6728
vn 0.7368 -0.6470 0.1963
vn 0.7368 0.4289 0.5226
usemtl Material.001
s off
f 177/117/53 142/118/53 80/119/53 175/120/53
f 178/121/54 84/122/54 86/123/54 179/124/54
f 179/124/55 86/123/55 88/125/55 180/126/55
f 180/127/56 88/128/56 90/129/56 181/130/56
f 181/130/57 90/129/57 92/131/57 182/132/57
f 182/132/58 92/131/58 94/133/58 183/134/58
f 183/134/59 94/133/59 96/135/59 184/136/59
f 184/136/60 96/135/60 98/137/60 185/138/60
f 185/138/61 98/137/61 100/139/61 186/140/61
f 186/140/62 100/139/62 102/141/62 187/142/62
f 187/143/63 102/144/63 104/145/63 188/146/63
f 188/146/64 104/145/64 106/147/64 189/148/64
f 189/148/65 106/147/65 108/149/65 190/150/65
f 190/150/66 108/149/66 110/151/66 191/152/66
f 191/152/67 110/151/67 112/153/67 192/154/67
f 192/154/68 112/153/68 114/155/68 193/156/68
f 193/156/69 114/155/69 116/157/69 194/158/69
f 194/158/70 116/157/70 118/159/70 195/160/70
f 195/161/71 118/162/71 120/163/71 196/164/71
f 196/164/72 120/163/72 122/165/72 197/166/72
f 197/166/73 122/165/73 124/167/73 198/168/73
f 198/168/74 124/167/74 126/169/74 199/170/74
f 199/170/75 126/169/75 128/171/75 200/172/75
f 200/172/76 128/171/76 130/173/76 201/174/76
f 201/174/77 130/173/77 132/175/77 202/176/77
f 202/176/78 132/175/78 134/177/78 203/178/78
f 203/178/79 134/177/79 136/179/79 204/180/79
f 204/181/80 136/182/80 138/183/80 205/184/80
f 205/184/81 138/183/81 140/185/81 206/186/81
f 206/186/82 140/185/82 142/118/82 177/117/82
f 175/120/83 80/119/83 82/187/83 176/188/83
f 176/188/84 82/187/84 84/122/84 178/121/84
f 82/189/85 80/190/85 79/191/85 81/192/85
f 84/193/86 82/189/86 81/192/86 83/194/86
f 86/195/87 84/193/87 83/194/87 85/196/87
f 88/197/88 86/195/88 85/196/88 87/198/88
f 90/199/89 88/197/89 87/198/89 89/200/89
f 92/201/90 90/199/90 89/200/90 91/202/90
f 94/203/91 92/201/91 91/202/91 93/204/91
f 96/135/92 94/133/92 93/205/92 95/206/92
f 98/207/93 96/208/93 95/209/93 97/210/93
f 100/211/94 98/207/94 97/210/94 99/212/94
f 102/213/95 100/211/95 99/212/95 101/214/95
f 104/215/96 102/213/96 101/214/96 103/216/96
f 106/217/97 104/215/97 103/216/97 105/218/97
f 108/219/98 106/217/98 105/218/98 107/220/98
f 110/151/99 108/149/99 107/221/99 109/222/99
f 112/223/100 110/224/100 109/225/100 111/226/100
f 114/227/101 112/223/101 111/226/101 113/228/101
f 116/229/102 114/227/102 113/228/102 115/230/102
f 118/231/103 116/229/103 115/230/103 117/232/103
f 120/233/104 118/231/104 117/232/104 119/234/104
f 122/235/105 120/233/105 119/234/105 121/236/105
f 124/237/106 122/235/106 121/236/106 123/238/106
f 126/239/107 124/237/107 123/238/107 125/240/107
f 128/241/108 126/239/108 125/240/108 127/242/108
f 130/243/109 128/241/109 127/242/109 129/244/109
f 132/245/110 130/243/110 129/244/110 131/246/110
f 134/247/111 132/245/111 131/246/111 133/248/111
f 136/249/112 134/247/112 133/248/112 135/250/112
f 138/251/113 136/249/113 135/250/113 137/252/113
f 140/253/114 138/251/114 137/252/114 139/254/114
f 142/255/115 140/253/115 139/254/115 141/256/115
f 80/190/116 142/255/116 141/256/116 79/191/116
f 105/218/117 103/216/117 155/257/117 156/258/117
f 144/259/118 143/260/118 174/261/118 173/262/118 172/263/118 171/264/118 170/265/118 169/266/118 168/267/118 167/268/118 166/269/118 165/270/118 164/271/118 163/272/118 162/273/118 161/274/118 160/275/118 159/276/118 158/277/118 157/278/118 156/258/118 155/257/118 154/279/118 153/280/118 152/281/118 151/282/118 150/283/118 149/284/118 148/285/118 147/286/118 146/287/118 145/288/118
f 123/238/119 121/236/119 164/271/119 165/270/119
f 141/256/120 139/254/120 173/262/120 174/261/120
f 97/210/121 95/209/121 151/282/121 152/281/121
f 115/230/122 113/228/122 160/275/122 161/274/122
f 133/248/123 131/246/123 169/266/123 170/265/123
f 79/191/124 141/256/124 174/261/124 143/260/124
f 89/200/125 87/198/125 147/286/125 148/285/125
f 107/220/126 105/218/126 156/258/126 157/278/126
f 125/240/127 123/238/127 165/270/127 166/269/127
f 81/192/128 79/191/128 143/260/128 144/259/128
f 99/212/129 97/210/129 152/281/129 153/280/129
f 117/232/130 115/230/130 161/274/130 162/273/130
f 135/250/131 133/248/131 170/265/131 171/264/131
f 91/202/132 89/200/132 148/285/132 149/284/132
f 109/225/133 107/220/133 157/278/133 158/277/133
f 127/242/134 125/240/134 166/269/134 167/268/134
f 83/194/135 81/192/135 144/259/135 145/288/135
f 101/214/136 99/212/136 153/280/136 154/279/136
f 119/234/137 117/232/137 162/273/137 163/272/137
f 137/252/138 135/250/138 171/264/138 172/263/138
f 93/204/139 91/202/139 149/284/139 150/283/139
f 111/226/140 109/225/140 158/277/140 159/276/140
f 129/244/141 127/242/141 167/268/141 168/267/141
f 85/196/142 83/194/142 145/288/142 146/287/142
f 103/216/143 101/214/143 154/279/143 155/257/143
f 121/236/144 119/234/144 163/272/144 164/271/144
f 139/254/145 137/252/145 172/263/145 173/262/145
f 95/209/146 93/204/146 150/283/146 151/282/146
f 113/228/147 111/226/147 159/276/147 160/275/147
f 131/246/148 129/244/148 168/267/148 169/266/148
f 87/198/149 85/196/149 146/287/149 147/286/149
