# Blender v3.2.2 OBJ File: 'IFB399-PitchBack.blend'
# www.blender.org
mtllib IFB399-PitchBack.mtl
o Cube
v 2.974283 -0.417219 -1.053051
v 2.974283 -0.417219 -0.247876
v -2.998775 -0.417219 -1.053051
v -2.998775 -0.417219 -0.247876
v -3.440998 0.281564 1.179522
v 2.974283 0.281564 0.017167
v -3.440998 0.281564 0.374347
v 2.974283 0.281564 0.822342
v -3.440998 -0.417219 0.109304
v -2.998775 0.281564 0.017167
v -3.440998 -0.417219 -0.695871
v -2.998775 0.281564 0.822342
v 2.780714 0.368235 0.265017
v 2.881330 0.342079 0.202801
v 2.780714 0.368235 0.683054
v 2.882325 0.341431 0.822072
v -2.805207 0.368235 0.265017
v -2.905823 0.342079 0.202801
v -2.805207 0.368235 0.683054
v -2.906817 0.341431 0.822072
v 2.974283 -0.417219 -0.247876
v 2.974283 -0.417219 -1.053051
v 2.974283 0.281564 0.822342
v 2.974283 0.281564 0.017167
v 3.449106 -0.417219 0.035600
v 3.449106 -0.417219 -0.769575
v 3.449106 0.281564 1.105818
v 3.449106 0.281564 0.300643
vt 0.035808 0.025028
vt 0.225442 0.025028
vt 0.225441 0.910754
vt 0.035808 0.910754
vt 0.269814 0.977276
vt 0.080180 0.977276
vt 0.571776 0.787754
vt 0.571776 0.113474
vt 0.647924 0.115098
vt 0.647924 0.789379
vt 0.795959 0.125294
vt 0.795959 0.778812
vt 0.792287 0.789379
vt 0.792287 0.115098
vt 0.833902 0.628354
vt 0.833902 0.628354
vt 0.833902 0.628354
vt 0.833902 0.628354
vt 0.531542 0.174336
vt 0.469776 0.175193
vt 0.448031 0.164808
vt 0.528384 0.163841
vt 0.478505 0.817324
vt 0.477389 0.186529
vt 0.519107 0.186027
vt 0.520223 0.816822
vt 0.945746 0.449731
vt 0.945746 0.594095
vt 0.896027 0.517947
vt 0.896027 0.373584
vt 0.470932 0.828713
vt 0.532699 0.828080
vt 0.529577 0.838354
vt 0.449225 0.839321
vt 0.304266 0.164808
vt 0.305459 0.839321
vt 0.483588 0.114441
vt 0.563941 0.113474
vt 0.681703 0.840020
vt 0.605556 0.838396
vt 0.339823 0.114441
vt 0.036568 0.910051
vt 0.226202 0.909494
vt 0.271944 0.979256
vt 0.082310 0.979813
vt 0.833902 0.628354
vt 0.833902 0.628354
vt 0.833902 0.628354
vt 0.833902 0.628354
vt 0.895759 0.333985
vt 0.895759 0.189622
vt 0.945479 0.113474
vt 0.945479 0.257837
vt 0.887304 0.257238
vt 0.887924 0.337594
vt 0.834522 0.365748
vt 0.833902 0.285392
vt 0.887924 0.113474
vt 0.834523 0.141628
vt 0.833902 0.449741
vt 0.834966 0.373584
vt 0.888191 0.400002
vt 0.887128 0.476159
vn 0.0000 -0.8373 0.5467
vn 0.4039 -0.7660 0.5001
vn 0.0000 -1.0000 0.0000
vn 0.0000 0.0045 1.0000
vn 0.0000 0.0000 1.0000
vn -0.5456 0.8381 -0.0000
vn 0.0000 1.0000 0.0000
vn -1.0000 0.0000 0.0000
vn 0.5456 0.8381 -0.0000
vn 0.0000 0.8373 -0.5467
vn 0.0000 0.9819 0.1893
vn 0.2532 0.9674 0.0004
vn -0.2532 0.9674 0.0004
vn 0.0000 0.9219 -0.3875
vn 0.0000 0.9508 -0.3099
vn -0.4039 0.7660 -0.5001
vn -0.3103 -0.7960 0.5197
vn 1.0000 0.0000 0.0000
vn 0.3103 0.7960 -0.5197
usemtl Material.001
s off
f 2/1/1 8/2/1 12/3/1 4/4/1
f 4/4/2 12/3/2 5/5/2 9/6/2
f 3/7/3 1/8/3 2/9/3 4/10/3
f 16/11/4 20/12/4 12/13/4 8/14/4
f 6/15/5 8/16/5 23/17/5 24/18/5
f 20/19/6 18/20/6 10/21/6 12/22/6
f 13/23/7 17/24/7 19/25/7 15/26/7
f 9/27/8 5/28/8 7/29/8 11/30/8
f 14/31/9 16/32/9 8/33/9 6/34/9
f 3/35/10 10/21/10 6/34/10 1/36/10
f 15/26/11 19/25/11 20/19/11 16/32/11
f 13/23/12 15/26/12 16/32/12 14/31/12
f 19/25/13 17/24/13 18/20/13 20/19/13
f 17/24/14 13/23/14 14/31/14 18/20/14
f 18/20/15 14/31/15 6/34/15 10/21/15
f 12/22/7 10/21/7 7/37/7 5/38/7
f 3/7/3 4/10/3 9/39/3 11/40/3
f 10/21/16 3/35/16 11/41/16 7/37/16
f 23/42/17 21/43/17 25/44/17 27/45/17
f 1/46/5 6/15/5 24/18/5 22/47/5
f 8/16/5 2/48/5 21/49/5 23/17/5
f 2/48/5 1/46/5 22/47/5 21/49/5
f 26/50/18 28/51/18 27/52/18 25/53/18
f 24/54/7 23/55/7 27/56/7 28/57/7
f 22/58/19 24/54/19 28/57/19 26/59/19
f 21/60/3 22/61/3 26/62/3 25/63/3
